<mxfile host="app.diagrams.net" agent="Mozilla/5.0 (Windows NT 10.0; Win64; x64) AppleWebKit/537.36 (KHTML, like Gecko) Chrome/131.0.0.0 Safari/537.36" version="25.0.3">
  <diagram name="Página-1" id="O46qB2xy3qGO76ybHzO5">
    <mxGraphModel dx="1434" dy="738" grid="1" gridSize="10" guides="1" tooltips="1" connect="1" arrows="1" fold="1" page="1" pageScale="1" pageWidth="827" pageHeight="1169" math="0" shadow="0">
      <root>
        <mxCell id="0" />
        <mxCell id="1" parent="0" />
        <mxCell id="2PhkvtB3VaE2R_Zsoz29-1" value="Gestão Cardapio Digital" style="swimlane;whiteSpace=wrap;html=1;fillColor=#dae8fc;fillStyle=solid;strokeColor=#6c8ebf;gradientColor=none;shadow=0;backgroundOutline=1;" parent="1" vertex="1">
          <mxGeometry x="90" y="120" width="560" height="660" as="geometry" />
        </mxCell>
        <mxCell id="2PhkvtB3VaE2R_Zsoz29-2" value="" style="rounded=0;whiteSpace=wrap;html=1;" parent="2PhkvtB3VaE2R_Zsoz29-1" vertex="1">
          <mxGeometry x="81" y="60" width="404" height="20" as="geometry" />
        </mxCell>
        <mxCell id="2PhkvtB3VaE2R_Zsoz29-3" value="Codigo:" style="text;html=1;align=center;verticalAlign=middle;whiteSpace=wrap;rounded=0;fontColor=#000000;" parent="2PhkvtB3VaE2R_Zsoz29-1" vertex="1">
          <mxGeometry x="76" y="30" width="60" height="30" as="geometry" />
        </mxCell>
        <mxCell id="2PhkvtB3VaE2R_Zsoz29-5" value="Nome:" style="text;html=1;align=center;verticalAlign=middle;whiteSpace=wrap;rounded=0;fontColor=#000000;" parent="2PhkvtB3VaE2R_Zsoz29-1" vertex="1">
          <mxGeometry x="75" y="115" width="60" height="30" as="geometry" />
        </mxCell>
        <mxCell id="2PhkvtB3VaE2R_Zsoz29-9" value="menu" style="html=1;shadow=0;dashed=0;shape=mxgraph.bootstrap.rrect;rSize=5;fillColor=#ffffff;strokeColor=#CED4DA;align=left;spacing=15;fontSize=14;fontColor=#6C767D;resizeHeight=0;" parent="2PhkvtB3VaE2R_Zsoz29-1" vertex="1">
          <mxGeometry x="81" y="90" width="224" height="25" as="geometry" />
        </mxCell>
        <mxCell id="2PhkvtB3VaE2R_Zsoz29-10" value="" style="shape=triangle;direction=south;fillColor=#343A40;strokeColor=none;perimeter=none;" parent="2PhkvtB3VaE2R_Zsoz29-9" vertex="1">
          <mxGeometry x="1" y="0.5" width="7" height="3" relative="1" as="geometry">
            <mxPoint x="-17" y="1" as="offset" />
          </mxGeometry>
        </mxCell>
        <mxCell id="2PhkvtB3VaE2R_Zsoz29-11" value="" style="shape=triangle;direction=north;fillColor=#343A40;strokeColor=none;perimeter=none;" parent="2PhkvtB3VaE2R_Zsoz29-9" vertex="1">
          <mxGeometry x="1" y="0.5" width="7" height="3" relative="1" as="geometry">
            <mxPoint x="-17" y="-4" as="offset" />
          </mxGeometry>
        </mxCell>
        <mxCell id="2PhkvtB3VaE2R_Zsoz29-13" value="Link img:" style="text;html=1;align=center;verticalAlign=middle;whiteSpace=wrap;rounded=0;fontColor=#000000;" parent="2PhkvtB3VaE2R_Zsoz29-1" vertex="1">
          <mxGeometry x="81" y="360" width="60" height="30" as="geometry" />
        </mxCell>
        <mxCell id="2PhkvtB3VaE2R_Zsoz29-14" value="Preço:" style="text;html=1;align=center;verticalAlign=middle;whiteSpace=wrap;rounded=0;labelBackgroundColor=none;fontColor=#000000;" parent="2PhkvtB3VaE2R_Zsoz29-1" vertex="1">
          <mxGeometry x="82" y="260" width="50" height="20" as="geometry" />
        </mxCell>
        <mxCell id="2PhkvtB3VaE2R_Zsoz29-27" value="" style="whiteSpace=wrap;html=1;aspect=fixed;" parent="2PhkvtB3VaE2R_Zsoz29-1" vertex="1">
          <mxGeometry x="387.5" y="320" width="100" height="100" as="geometry" />
        </mxCell>
        <mxCell id="2PhkvtB3VaE2R_Zsoz29-28" value="" style="rounded=0;whiteSpace=wrap;html=1;" parent="2PhkvtB3VaE2R_Zsoz29-1" vertex="1">
          <mxGeometry x="81" y="145" width="404" height="20" as="geometry" />
        </mxCell>
        <mxCell id="2PhkvtB3VaE2R_Zsoz29-29" value="" style="rounded=0;whiteSpace=wrap;html=1;" parent="2PhkvtB3VaE2R_Zsoz29-1" vertex="1">
          <mxGeometry x="83" y="280" width="404" height="20" as="geometry" />
        </mxCell>
        <mxCell id="2PhkvtB3VaE2R_Zsoz29-31" value="" style="rounded=0;whiteSpace=wrap;html=1;" parent="2PhkvtB3VaE2R_Zsoz29-1" vertex="1">
          <mxGeometry x="86" y="390" width="284" height="20" as="geometry" />
        </mxCell>
        <mxCell id="2PhkvtB3VaE2R_Zsoz29-137" style="edgeStyle=orthogonalEdgeStyle;rounded=0;orthogonalLoop=1;jettySize=auto;html=1;entryX=0;entryY=0;entryDx=0;entryDy=0;" parent="2PhkvtB3VaE2R_Zsoz29-1" source="2PhkvtB3VaE2R_Zsoz29-32" target="2PhkvtB3VaE2R_Zsoz29-59" edge="1">
          <mxGeometry relative="1" as="geometry">
            <Array as="points">
              <mxPoint x="30" y="445" />
              <mxPoint x="30" y="540" />
            </Array>
          </mxGeometry>
        </mxCell>
        <mxCell id="2PhkvtB3VaE2R_Zsoz29-32" value="Salvar" style="html=1;shadow=0;dashed=0;shape=mxgraph.bootstrap.rrect;rSize=5;strokeColor=none;strokeWidth=1;fillColor=#33A64C;fontColor=#FFFFFF;whiteSpace=wrap;align=center;verticalAlign=middle;spacingLeft=0;fontStyle=0;fontSize=16;spacing=5;" parent="2PhkvtB3VaE2R_Zsoz29-1" vertex="1">
          <mxGeometry x="78.5" y="430" width="94" height="30" as="geometry" />
        </mxCell>
        <mxCell id="2PhkvtB3VaE2R_Zsoz29-33" value="Pesquisar" style="html=1;shadow=0;dashed=0;shape=mxgraph.bootstrap.rrect;rSize=5;strokeColor=none;strokeWidth=1;fillColor=#FFBC26;fontColor=#FFFFFF;whiteSpace=wrap;align=center;verticalAlign=middle;spacingLeft=0;fontStyle=0;fontSize=16;spacing=5;" parent="2PhkvtB3VaE2R_Zsoz29-1" vertex="1">
          <mxGeometry x="182.5" y="430" width="94.5" height="30" as="geometry" />
        </mxCell>
        <mxCell id="2PhkvtB3VaE2R_Zsoz29-54" value="" style="rounded=0;whiteSpace=wrap;html=1;" parent="2PhkvtB3VaE2R_Zsoz29-1" vertex="1">
          <mxGeometry x="78.5" y="510" width="69" height="30" as="geometry" />
        </mxCell>
        <mxCell id="2PhkvtB3VaE2R_Zsoz29-55" value="" style="rounded=0;whiteSpace=wrap;html=1;" parent="2PhkvtB3VaE2R_Zsoz29-1" vertex="1">
          <mxGeometry x="147.5" y="510" width="69" height="30" as="geometry" />
        </mxCell>
        <mxCell id="2PhkvtB3VaE2R_Zsoz29-56" value="" style="rounded=0;whiteSpace=wrap;html=1;" parent="2PhkvtB3VaE2R_Zsoz29-1" vertex="1">
          <mxGeometry x="216.5" y="510" width="69" height="30" as="geometry" />
        </mxCell>
        <mxCell id="2PhkvtB3VaE2R_Zsoz29-57" value="" style="rounded=0;whiteSpace=wrap;html=1;" parent="2PhkvtB3VaE2R_Zsoz29-1" vertex="1">
          <mxGeometry x="285.5" y="510" width="69" height="30" as="geometry" />
        </mxCell>
        <mxCell id="2PhkvtB3VaE2R_Zsoz29-58" value="" style="rounded=0;whiteSpace=wrap;html=1;" parent="2PhkvtB3VaE2R_Zsoz29-1" vertex="1">
          <mxGeometry x="354.5" y="510" width="133" height="30" as="geometry" />
        </mxCell>
        <mxCell id="2PhkvtB3VaE2R_Zsoz29-59" value="" style="rounded=0;whiteSpace=wrap;html=1;" parent="2PhkvtB3VaE2R_Zsoz29-1" vertex="1">
          <mxGeometry x="78.5" y="540" width="69" height="30" as="geometry" />
        </mxCell>
        <mxCell id="2PhkvtB3VaE2R_Zsoz29-60" value="" style="rounded=0;whiteSpace=wrap;html=1;" parent="2PhkvtB3VaE2R_Zsoz29-1" vertex="1">
          <mxGeometry x="78.5" y="570" width="69" height="30" as="geometry" />
        </mxCell>
        <mxCell id="2PhkvtB3VaE2R_Zsoz29-61" value="" style="rounded=0;whiteSpace=wrap;html=1;" parent="2PhkvtB3VaE2R_Zsoz29-1" vertex="1">
          <mxGeometry x="147.5" y="570" width="69" height="30" as="geometry" />
        </mxCell>
        <mxCell id="2PhkvtB3VaE2R_Zsoz29-62" value="" style="rounded=0;whiteSpace=wrap;html=1;" parent="2PhkvtB3VaE2R_Zsoz29-1" vertex="1">
          <mxGeometry x="147.5" y="540" width="69" height="30" as="geometry" />
        </mxCell>
        <mxCell id="2PhkvtB3VaE2R_Zsoz29-63" value="" style="rounded=0;whiteSpace=wrap;html=1;" parent="2PhkvtB3VaE2R_Zsoz29-1" vertex="1">
          <mxGeometry x="216.5" y="570" width="69" height="30" as="geometry" />
        </mxCell>
        <mxCell id="2PhkvtB3VaE2R_Zsoz29-64" value="" style="rounded=0;whiteSpace=wrap;html=1;" parent="2PhkvtB3VaE2R_Zsoz29-1" vertex="1">
          <mxGeometry x="216.5" y="540" width="69" height="30" as="geometry" />
        </mxCell>
        <mxCell id="2PhkvtB3VaE2R_Zsoz29-65" value="" style="rounded=0;whiteSpace=wrap;html=1;" parent="2PhkvtB3VaE2R_Zsoz29-1" vertex="1">
          <mxGeometry x="285.5" y="540" width="69" height="30" as="geometry" />
        </mxCell>
        <mxCell id="2PhkvtB3VaE2R_Zsoz29-66" value="" style="rounded=0;whiteSpace=wrap;html=1;" parent="2PhkvtB3VaE2R_Zsoz29-1" vertex="1">
          <mxGeometry x="285.5" y="570" width="69" height="30" as="geometry" />
        </mxCell>
        <mxCell id="2PhkvtB3VaE2R_Zsoz29-67" value="" style="rounded=0;whiteSpace=wrap;html=1;" parent="2PhkvtB3VaE2R_Zsoz29-1" vertex="1">
          <mxGeometry x="354.5" y="540" width="133" height="30" as="geometry" />
        </mxCell>
        <mxCell id="2PhkvtB3VaE2R_Zsoz29-68" value="" style="rounded=0;whiteSpace=wrap;html=1;" parent="2PhkvtB3VaE2R_Zsoz29-1" vertex="1">
          <mxGeometry x="354.5" y="570" width="133" height="30" as="geometry" />
        </mxCell>
        <mxCell id="2PhkvtB3VaE2R_Zsoz29-69" value="Código" style="text;html=1;align=center;verticalAlign=middle;whiteSpace=wrap;rounded=0;" parent="2PhkvtB3VaE2R_Zsoz29-1" vertex="1">
          <mxGeometry x="88" y="515" width="50" height="20" as="geometry" />
        </mxCell>
        <mxCell id="2PhkvtB3VaE2R_Zsoz29-70" value="Nome" style="text;html=1;align=center;verticalAlign=middle;whiteSpace=wrap;rounded=0;" parent="2PhkvtB3VaE2R_Zsoz29-1" vertex="1">
          <mxGeometry x="157" y="515" width="50" height="20" as="geometry" />
        </mxCell>
        <mxCell id="2PhkvtB3VaE2R_Zsoz29-71" value="Menu" style="text;html=1;align=center;verticalAlign=middle;whiteSpace=wrap;rounded=0;" parent="2PhkvtB3VaE2R_Zsoz29-1" vertex="1">
          <mxGeometry x="226" y="515" width="50" height="20" as="geometry" />
        </mxCell>
        <mxCell id="2PhkvtB3VaE2R_Zsoz29-72" value="Preço" style="text;html=1;align=center;verticalAlign=middle;whiteSpace=wrap;rounded=0;" parent="2PhkvtB3VaE2R_Zsoz29-1" vertex="1">
          <mxGeometry x="295" y="515" width="50" height="20" as="geometry" />
        </mxCell>
        <mxCell id="2PhkvtB3VaE2R_Zsoz29-73" value="Ações" style="text;html=1;align=center;verticalAlign=middle;whiteSpace=wrap;rounded=0;" parent="2PhkvtB3VaE2R_Zsoz29-1" vertex="1">
          <mxGeometry x="396" y="515" width="50" height="20" as="geometry" />
        </mxCell>
        <mxCell id="2PhkvtB3VaE2R_Zsoz29-76" value="Editar" style="rounded=1;whiteSpace=wrap;html=1;arcSize=50;strokeColor=none;strokeWidth=1;fillColor=#6C767D;fontColor=#FFFFFF;whiteSpace=wrap;align=left;verticalAlign=middle;spacingLeft=0;fontStyle=1;fontSize=14;spacing=10;" parent="2PhkvtB3VaE2R_Zsoz29-1" vertex="1">
          <mxGeometry x="357.5" y="544.5" width="59" height="20" as="geometry" />
        </mxCell>
        <mxCell id="2PhkvtB3VaE2R_Zsoz29-77" value="Excluir" style="rounded=1;whiteSpace=wrap;html=1;arcSize=50;strokeColor=none;strokeWidth=1;fillColor=#DB2843;fontColor=#FFFFFF;whiteSpace=wrap;align=left;verticalAlign=middle;spacingLeft=0;fontStyle=1;fontSize=14;spacing=10;" parent="2PhkvtB3VaE2R_Zsoz29-1" vertex="1">
          <mxGeometry x="417.5" y="545" width="65" height="20" as="geometry" />
        </mxCell>
        <mxCell id="2PhkvtB3VaE2R_Zsoz29-78" value="Editar" style="rounded=1;whiteSpace=wrap;html=1;arcSize=50;strokeColor=none;strokeWidth=1;fillColor=#6C767D;fontColor=#FFFFFF;whiteSpace=wrap;align=left;verticalAlign=middle;spacingLeft=0;fontStyle=1;fontSize=14;spacing=10;" parent="2PhkvtB3VaE2R_Zsoz29-1" vertex="1">
          <mxGeometry x="358.5" y="574.75" width="59" height="20" as="geometry" />
        </mxCell>
        <mxCell id="2PhkvtB3VaE2R_Zsoz29-79" value="Excluir" style="rounded=1;whiteSpace=wrap;html=1;arcSize=50;strokeColor=none;strokeWidth=1;fillColor=#DB2843;fontColor=#FFFFFF;whiteSpace=wrap;align=left;verticalAlign=middle;spacingLeft=0;fontStyle=1;fontSize=14;spacing=10;" parent="2PhkvtB3VaE2R_Zsoz29-1" vertex="1">
          <mxGeometry x="418.5" y="575.25" width="65" height="20" as="geometry" />
        </mxCell>
        <mxCell id="2PhkvtB3VaE2R_Zsoz29-80" value="Lorem" style="text;html=1;align=center;verticalAlign=middle;whiteSpace=wrap;rounded=0;" parent="2PhkvtB3VaE2R_Zsoz29-1" vertex="1">
          <mxGeometry x="157" y="545" width="50" height="20" as="geometry" />
        </mxCell>
        <mxCell id="2PhkvtB3VaE2R_Zsoz29-81" value="1" style="text;html=1;align=center;verticalAlign=middle;whiteSpace=wrap;rounded=0;" parent="2PhkvtB3VaE2R_Zsoz29-1" vertex="1">
          <mxGeometry x="88.5" y="545" width="50" height="20" as="geometry" />
        </mxCell>
        <mxCell id="2PhkvtB3VaE2R_Zsoz29-82" value="Lorem" style="text;html=1;align=center;verticalAlign=middle;whiteSpace=wrap;rounded=0;" parent="2PhkvtB3VaE2R_Zsoz29-1" vertex="1">
          <mxGeometry x="226" y="544.5" width="50" height="20" as="geometry" />
        </mxCell>
        <mxCell id="2PhkvtB3VaE2R_Zsoz29-83" value="25,80" style="text;html=1;align=center;verticalAlign=middle;whiteSpace=wrap;rounded=0;" parent="2PhkvtB3VaE2R_Zsoz29-1" vertex="1">
          <mxGeometry x="295" y="544.5" width="50" height="20" as="geometry" />
        </mxCell>
        <mxCell id="2PhkvtB3VaE2R_Zsoz29-84" value="2" style="text;html=1;align=center;verticalAlign=middle;whiteSpace=wrap;rounded=0;" parent="2PhkvtB3VaE2R_Zsoz29-1" vertex="1">
          <mxGeometry x="88.5" y="574.75" width="50" height="20" as="geometry" />
        </mxCell>
        <mxCell id="2PhkvtB3VaE2R_Zsoz29-85" value="Lorem" style="text;html=1;align=center;verticalAlign=middle;whiteSpace=wrap;rounded=0;" parent="2PhkvtB3VaE2R_Zsoz29-1" vertex="1">
          <mxGeometry x="157" y="574.75" width="50" height="20" as="geometry" />
        </mxCell>
        <mxCell id="2PhkvtB3VaE2R_Zsoz29-86" value="Lorem" style="text;html=1;align=center;verticalAlign=middle;whiteSpace=wrap;rounded=0;" parent="2PhkvtB3VaE2R_Zsoz29-1" vertex="1">
          <mxGeometry x="226" y="574.25" width="50" height="20" as="geometry" />
        </mxCell>
        <mxCell id="2PhkvtB3VaE2R_Zsoz29-87" value="15,80" style="text;html=1;align=center;verticalAlign=middle;whiteSpace=wrap;rounded=0;" parent="2PhkvtB3VaE2R_Zsoz29-1" vertex="1">
          <mxGeometry x="295" y="574.25" width="50" height="20" as="geometry" />
        </mxCell>
        <mxCell id="2PhkvtB3VaE2R_Zsoz29-88" value="" style="swimlane;shape=mxgraph.bootstrap.anchor;strokeColor=#DEE2E6;fillColor=#ffffff;fontColor=#0085FC;fontStyle=0;childLayout=stackLayout;horizontal=0;startSize=0;horizontalStack=1;resizeParent=1;resizeParentMax=0;resizeLast=0;collapsible=0;marginBottom=0;whiteSpace=wrap;html=1;" parent="2PhkvtB3VaE2R_Zsoz29-1" vertex="1">
          <mxGeometry x="78.5" y="610" width="75" height="25" as="geometry" />
        </mxCell>
        <mxCell id="2PhkvtB3VaE2R_Zsoz29-89" value="1" style="text;strokeColor=inherit;align=center;verticalAlign=middle;spacingLeft=5;spacingRight=5;overflow=hidden;points=[[0,0.5],[1,0.5]];portConstraint=eastwest;rotatable=0;whiteSpace=wrap;html=1;shape=mxgraph.bootstrap.leftButton;rSize=5;fillColor=#0085FC;fontColor=#ffffff;fontSize=12;" parent="2PhkvtB3VaE2R_Zsoz29-88" vertex="1">
          <mxGeometry width="25" height="25" as="geometry" />
        </mxCell>
        <mxCell id="2PhkvtB3VaE2R_Zsoz29-90" value="2" style="text;strokeColor=inherit;align=center;verticalAlign=middle;spacingLeft=5;spacingRight=5;overflow=hidden;points=[[0,0.5],[1,0.5]];portConstraint=eastwest;rotatable=0;whiteSpace=wrap;html=1;rSize=5;fillColor=inherit;fontColor=inherit;fontSize=12;" parent="2PhkvtB3VaE2R_Zsoz29-88" vertex="1">
          <mxGeometry x="25" width="25" height="25" as="geometry" />
        </mxCell>
        <mxCell id="2PhkvtB3VaE2R_Zsoz29-91" value="3" style="text;strokeColor=inherit;align=center;verticalAlign=middle;spacingLeft=5;spacingRight=5;overflow=hidden;points=[[0,0.5],[1,0.5]];portConstraint=eastwest;rotatable=0;whiteSpace=wrap;html=1;shape=mxgraph.bootstrap.rightButton;rSize=5;fillColor=inherit;fontColor=inherit;fontSize=12;" parent="2PhkvtB3VaE2R_Zsoz29-88" vertex="1">
          <mxGeometry x="50" width="25" height="25" as="geometry" />
        </mxCell>
        <mxCell id="2PhkvtB3VaE2R_Zsoz29-128" value="Descrição:" style="text;html=1;align=center;verticalAlign=middle;whiteSpace=wrap;rounded=0;fontColor=#000000;" parent="2PhkvtB3VaE2R_Zsoz29-1" vertex="1">
          <mxGeometry x="83" y="170.00235294117647" width="60" height="34.41176470588235" as="geometry" />
        </mxCell>
        <mxCell id="2PhkvtB3VaE2R_Zsoz29-129" value="" style="rounded=0;whiteSpace=wrap;html=1;" parent="2PhkvtB3VaE2R_Zsoz29-1" vertex="1">
          <mxGeometry x="82" y="198.67882352941177" width="404" height="45.882352941176464" as="geometry" />
        </mxCell>
        <mxCell id="13uV7yLoOHO-0PYfbks7-1" value="menu" style="html=1;shadow=0;dashed=0;shape=mxgraph.bootstrap.rrect;rSize=5;fillColor=#ffffff;strokeColor=#CED4DA;align=left;spacing=15;fontSize=14;fontColor=#6C767D;resizeHeight=0;" vertex="1" parent="2PhkvtB3VaE2R_Zsoz29-1">
          <mxGeometry x="78.5" y="470" width="224" height="25" as="geometry" />
        </mxCell>
        <mxCell id="13uV7yLoOHO-0PYfbks7-2" value="" style="shape=triangle;direction=south;fillColor=#343A40;strokeColor=none;perimeter=none;" vertex="1" parent="13uV7yLoOHO-0PYfbks7-1">
          <mxGeometry x="1" y="0.5" width="7" height="3" relative="1" as="geometry">
            <mxPoint x="-17" y="1" as="offset" />
          </mxGeometry>
        </mxCell>
        <mxCell id="13uV7yLoOHO-0PYfbks7-3" value="" style="shape=triangle;direction=north;fillColor=#343A40;strokeColor=none;perimeter=none;" vertex="1" parent="13uV7yLoOHO-0PYfbks7-1">
          <mxGeometry x="1" y="0.5" width="7" height="3" relative="1" as="geometry">
            <mxPoint x="-17" y="-4" as="offset" />
          </mxGeometry>
        </mxCell>
        <mxCell id="13uV7yLoOHO-0PYfbks7-4" value="Filtrar" style="html=1;shadow=0;dashed=0;shape=mxgraph.bootstrap.rrect;rSize=5;strokeColor=none;strokeWidth=1;fillColor=#6C767D;fontColor=#FFFFFF;whiteSpace=wrap;align=center;verticalAlign=middle;spacingLeft=0;fontStyle=0;fontSize=16;spacing=5;" vertex="1" parent="2PhkvtB3VaE2R_Zsoz29-1">
          <mxGeometry x="320" y="467.5" width="93" height="30" as="geometry" />
        </mxCell>
        <mxCell id="2PhkvtB3VaE2R_Zsoz29-94" value="Modal - Menu&amp;nbsp;" style="html=1;shadow=0;dashed=0;shape=mxgraph.bootstrap.rrect;rSize=5;html=1;strokeColor=#C8C8C8;fillColor=#ffffff;whiteSpace=wrap;verticalAlign=top;align=left;fontSize=18;spacing=15;spacingTop=-5;" parent="1" vertex="1">
          <mxGeometry x="90" y="810" width="500" height="340" as="geometry" />
        </mxCell>
        <mxCell id="2PhkvtB3VaE2R_Zsoz29-95" value="" style="shape=line;strokeColor=#dddddd;resizeWidth=1;" parent="2PhkvtB3VaE2R_Zsoz29-94" vertex="1">
          <mxGeometry width="499.9999999999999" height="10" relative="1" as="geometry">
            <mxPoint y="50" as="offset" />
          </mxGeometry>
        </mxCell>
        <mxCell id="2PhkvtB3VaE2R_Zsoz29-96" value="" style="html=1;shadow=0;dashed=0;shape=mxgraph.bootstrap.x;strokeColor=#868686;strokeWidth=2;" parent="2PhkvtB3VaE2R_Zsoz29-94" vertex="1">
          <mxGeometry x="1" width="8" height="8" relative="1" as="geometry">
            <mxPoint x="-24" y="20" as="offset" />
          </mxGeometry>
        </mxCell>
        <mxCell id="2PhkvtB3VaE2R_Zsoz29-106" value="Close" style="html=1;shadow=0;dashed=0;shape=mxgraph.bootstrap.rrect;rSize=5;fillColor=#6C757D;strokeColor=none;fontColor=#FFFFFF;fontSize=14;" parent="2PhkvtB3VaE2R_Zsoz29-94" vertex="1">
          <mxGeometry x="1" y="1" width="70" height="40" relative="1" as="geometry">
            <mxPoint x="-137" y="-60" as="offset" />
          </mxGeometry>
        </mxCell>
        <mxCell id="2PhkvtB3VaE2R_Zsoz29-107" value="&lt;span style=&quot;font-size: 20px;&quot;&gt;&lt;b&gt;(Nome cardapio)&lt;/b&gt;&lt;/span&gt;&lt;br&gt;&lt;br&gt;Descrição: card with supporting text below as a natural lead-in to additional content. This content is a little bit longer.&lt;br&gt;&lt;div&gt;&lt;br&gt;&lt;/div&gt;" style="html=1;shadow=0;dashed=0;shape=mxgraph.bootstrap.rrect;rSize=5;strokeColor=#DFDFDF;html=1;whiteSpace=wrap;fillColor=#ffffff;fontColor=#000000;verticalAlign=top;align=left;spacing=20;fontSize=14;spacingLeft=170;" parent="2PhkvtB3VaE2R_Zsoz29-94" vertex="1">
          <mxGeometry x="8.925925925925927" y="62.64" width="428.5740740740741" height="207.36" as="geometry" />
        </mxCell>
        <mxCell id="2PhkvtB3VaE2R_Zsoz29-108" value="Image" style="html=1;shadow=0;dashed=0;shape=mxgraph.bootstrap.leftButton;rSize=5;perimeter=none;whiteSpace=wrap;fillColor=#868E96;strokeColor=#DFDFDF;fontColor=#DEE2E6;resizeWidth=1;fontSize=18;" parent="2PhkvtB3VaE2R_Zsoz29-107" vertex="1">
          <mxGeometry width="151.78703703703704" height="210" relative="1" as="geometry" />
        </mxCell>
        <mxCell id="2PhkvtB3VaE2R_Zsoz29-111" value="Preço: 25,80" style="text;html=1;align=center;verticalAlign=middle;whiteSpace=wrap;rounded=0;" parent="2PhkvtB3VaE2R_Zsoz29-107" vertex="1">
          <mxGeometry x="184.28" y="147.36" width="75.72" height="30" as="geometry" />
        </mxCell>
        <mxCell id="2PhkvtB3VaE2R_Zsoz29-113" value="Modal - Menu&amp;nbsp;" style="html=1;shadow=0;dashed=0;shape=mxgraph.bootstrap.rrect;rSize=5;html=1;strokeColor=#C8C8C8;fillColor=#ffffff;whiteSpace=wrap;verticalAlign=top;align=left;fontSize=18;spacing=15;spacingTop=-5;" parent="1" vertex="1">
          <mxGeometry x="710" y="700" width="556" height="510" as="geometry" />
        </mxCell>
        <mxCell id="2PhkvtB3VaE2R_Zsoz29-114" value="" style="shape=line;strokeColor=#dddddd;resizeWidth=1;" parent="2PhkvtB3VaE2R_Zsoz29-113" vertex="1">
          <mxGeometry width="555.9999999999999" height="10" relative="1" as="geometry">
            <mxPoint y="50" as="offset" />
          </mxGeometry>
        </mxCell>
        <mxCell id="2PhkvtB3VaE2R_Zsoz29-115" value="" style="html=1;shadow=0;dashed=0;shape=mxgraph.bootstrap.x;strokeColor=#868686;strokeWidth=2;" parent="2PhkvtB3VaE2R_Zsoz29-113" vertex="1">
          <mxGeometry x="1" width="8" height="8" relative="1" as="geometry">
            <mxPoint x="-24" y="20" as="offset" />
          </mxGeometry>
        </mxCell>
        <mxCell id="2PhkvtB3VaE2R_Zsoz29-121" value="Codigo:" style="text;html=1;align=center;verticalAlign=middle;whiteSpace=wrap;rounded=0;" parent="2PhkvtB3VaE2R_Zsoz29-113" vertex="1">
          <mxGeometry x="46" y="50.902890981070556" width="60" height="29.19258791044279" as="geometry" />
        </mxCell>
        <mxCell id="2PhkvtB3VaE2R_Zsoz29-122" value="&amp;nbsp; 1" style="rounded=0;whiteSpace=wrap;html=1;editable=1;movable=1;resizable=1;rotatable=1;deletable=1;locked=0;connectable=1;fillColor=#f5f5f5;fontColor=#333333;strokeColor=#666666;align=left;" parent="2PhkvtB3VaE2R_Zsoz29-113" vertex="1">
          <mxGeometry x="50" y="80.1" width="220" height="19.46" as="geometry" />
        </mxCell>
        <mxCell id="2PhkvtB3VaE2R_Zsoz29-123" value="Lorem" style="html=1;shadow=0;dashed=0;shape=mxgraph.bootstrap.rrect;rSize=5;fillColor=#ffffff;strokeColor=#CED4DA;align=left;spacing=15;fontSize=14;fontColor=#353A40;resizeHeight=0;fontStyle=0" parent="2PhkvtB3VaE2R_Zsoz29-113" vertex="1">
          <mxGeometry x="48" y="107.99806680195607" width="224" height="25" as="geometry" />
        </mxCell>
        <mxCell id="2PhkvtB3VaE2R_Zsoz29-124" value="" style="shape=triangle;direction=south;fillColor=#343A40;strokeColor=none;perimeter=none;" parent="2PhkvtB3VaE2R_Zsoz29-123" vertex="1">
          <mxGeometry x="1" y="0.5" width="7" height="3" relative="1" as="geometry">
            <mxPoint x="-17" y="1" as="offset" />
          </mxGeometry>
        </mxCell>
        <mxCell id="2PhkvtB3VaE2R_Zsoz29-125" value="" style="shape=triangle;direction=north;fillColor=#343A40;strokeColor=none;perimeter=none;" parent="2PhkvtB3VaE2R_Zsoz29-123" vertex="1">
          <mxGeometry x="1" y="0.5" width="7" height="3" relative="1" as="geometry">
            <mxPoint x="-17" y="-4" as="offset" />
          </mxGeometry>
        </mxCell>
        <mxCell id="2PhkvtB3VaE2R_Zsoz29-126" value="Nome:" style="text;html=1;align=center;verticalAlign=middle;whiteSpace=wrap;rounded=0;" parent="2PhkvtB3VaE2R_Zsoz29-113" vertex="1">
          <mxGeometry x="40" y="132.99644033400975" width="60" height="29.19258791044279" as="geometry" />
        </mxCell>
        <mxCell id="2PhkvtB3VaE2R_Zsoz29-127" value="Lorem" style="rounded=0;whiteSpace=wrap;html=1;align=left;" parent="2PhkvtB3VaE2R_Zsoz29-113" vertex="1">
          <mxGeometry x="51" y="162.18503609567853" width="404" height="19.461725273628527" as="geometry" />
        </mxCell>
        <mxCell id="2PhkvtB3VaE2R_Zsoz29-110" value="Descrição:" style="text;html=1;align=center;verticalAlign=middle;whiteSpace=wrap;rounded=0;" parent="2PhkvtB3VaE2R_Zsoz29-113" vertex="1">
          <mxGeometry x="50" y="189.99598256761706" width="60" height="29.19258791044279" as="geometry" />
        </mxCell>
        <mxCell id="2PhkvtB3VaE2R_Zsoz29-109" value="Lorrewef fsdmfs msdfsfs sdfsfsfs" style="rounded=0;whiteSpace=wrap;html=1;align=left;" parent="2PhkvtB3VaE2R_Zsoz29-113" vertex="1">
          <mxGeometry x="51" y="211.96313915965268" width="404" height="38.923450547257055" as="geometry" />
        </mxCell>
        <mxCell id="2PhkvtB3VaE2R_Zsoz29-130" value="Preço:" style="text;html=1;align=center;verticalAlign=middle;whiteSpace=wrap;rounded=0;" parent="2PhkvtB3VaE2R_Zsoz29-113" vertex="1">
          <mxGeometry x="45" y="263.98383179746503" width="50" height="16.96663228983" as="geometry" />
        </mxCell>
        <mxCell id="2PhkvtB3VaE2R_Zsoz29-131" value="25,80" style="rounded=0;whiteSpace=wrap;html=1;align=left;" parent="2PhkvtB3VaE2R_Zsoz29-113" vertex="1">
          <mxGeometry x="51" y="280.950464087295" width="404" height="16.96663228983" as="geometry" />
        </mxCell>
        <mxCell id="2PhkvtB3VaE2R_Zsoz29-132" value="Link img:" style="text;html=1;align=center;verticalAlign=middle;whiteSpace=wrap;rounded=0;" parent="2PhkvtB3VaE2R_Zsoz29-113" vertex="1">
          <mxGeometry x="46" y="339.3326457966" width="60" height="25.449948434745004" as="geometry" />
        </mxCell>
        <mxCell id="2PhkvtB3VaE2R_Zsoz29-133" value="loccs.sas.saf" style="rounded=0;whiteSpace=wrap;html=1;align=left;" parent="2PhkvtB3VaE2R_Zsoz29-113" vertex="1">
          <mxGeometry x="51" y="364.78259423134506" width="284" height="16.96663228983" as="geometry" />
        </mxCell>
        <mxCell id="2PhkvtB3VaE2R_Zsoz29-134" value="x" style="whiteSpace=wrap;html=1;aspect=fixed;" parent="2PhkvtB3VaE2R_Zsoz29-113" vertex="1">
          <mxGeometry x="352.5" y="305.39938121694" width="80.51961086698982" height="80.51961086698982" as="geometry" />
        </mxCell>
        <mxCell id="2PhkvtB3VaE2R_Zsoz29-135" value="Salvar" style="html=1;shadow=0;dashed=0;shape=mxgraph.bootstrap.rrect;rSize=5;strokeColor=none;strokeWidth=1;fillColor=#33A64C;fontColor=#FFFFFF;whiteSpace=wrap;align=center;verticalAlign=middle;spacingLeft=0;fontStyle=0;fontSize=16;spacing=5;" parent="2PhkvtB3VaE2R_Zsoz29-113" vertex="1">
          <mxGeometry x="51" y="406.271186440678" width="94" height="25.93220338983051" as="geometry" />
        </mxCell>
        <mxCell id="2PhkvtB3VaE2R_Zsoz29-136" value="Cancelar" style="html=1;shadow=0;dashed=0;shape=mxgraph.bootstrap.rrect;rSize=5;strokeColor=none;strokeWidth=1;fillColor=#FFBC26;fontColor=#FFFFFF;whiteSpace=wrap;align=center;verticalAlign=middle;spacingLeft=0;fontStyle=0;fontSize=16;spacing=5;" parent="2PhkvtB3VaE2R_Zsoz29-113" vertex="1">
          <mxGeometry x="155" y="406.271186440678" width="94.5" height="25.93220338983051" as="geometry" />
        </mxCell>
        <mxCell id="2PhkvtB3VaE2R_Zsoz29-120" style="edgeStyle=orthogonalEdgeStyle;rounded=0;orthogonalLoop=1;jettySize=auto;html=1;exitX=0.5;exitY=1;exitDx=0;exitDy=0;entryX=0.364;entryY=0;entryDx=0;entryDy=0;entryPerimeter=0;" parent="1" source="2PhkvtB3VaE2R_Zsoz29-80" target="2PhkvtB3VaE2R_Zsoz29-94" edge="1">
          <mxGeometry relative="1" as="geometry" />
        </mxCell>
        <mxCell id="2PhkvtB3VaE2R_Zsoz29-140" style="edgeStyle=orthogonalEdgeStyle;rounded=0;orthogonalLoop=1;jettySize=auto;html=1;exitX=0.75;exitY=1;exitDx=0;exitDy=0;entryX=0.002;entryY=0.444;entryDx=0;entryDy=0;entryPerimeter=0;" parent="1" source="2PhkvtB3VaE2R_Zsoz29-76" target="2PhkvtB3VaE2R_Zsoz29-113" edge="1">
          <mxGeometry relative="1" as="geometry">
            <Array as="points">
              <mxPoint x="492" y="760" />
              <mxPoint x="660" y="760" />
              <mxPoint x="660" y="911" />
              <mxPoint x="711" y="911" />
            </Array>
          </mxGeometry>
        </mxCell>
        <mxCell id="2PhkvtB3VaE2R_Zsoz29-141" value="Modal - Pesquisa&amp;nbsp;" style="html=1;shadow=0;dashed=0;shape=mxgraph.bootstrap.rrect;rSize=5;html=1;strokeColor=#C8C8C8;fillColor=#ffffff;whiteSpace=wrap;verticalAlign=top;align=left;fontSize=18;spacing=15;spacingTop=-5;" parent="1" vertex="1">
          <mxGeometry x="680" y="340" width="530" height="290.75" as="geometry" />
        </mxCell>
        <mxCell id="2PhkvtB3VaE2R_Zsoz29-142" value="" style="shape=line;strokeColor=#dddddd;resizeWidth=1;" parent="2PhkvtB3VaE2R_Zsoz29-141" vertex="1">
          <mxGeometry width="529.9999999999999" height="10" relative="1" as="geometry">
            <mxPoint y="50" as="offset" />
          </mxGeometry>
        </mxCell>
        <mxCell id="2PhkvtB3VaE2R_Zsoz29-143" value="" style="html=1;shadow=0;dashed=0;shape=mxgraph.bootstrap.x;strokeColor=#868686;strokeWidth=2;" parent="2PhkvtB3VaE2R_Zsoz29-141" vertex="1">
          <mxGeometry x="1" width="8" height="8" relative="1" as="geometry">
            <mxPoint x="-24" y="20" as="offset" />
          </mxGeometry>
        </mxCell>
        <mxCell id="2PhkvtB3VaE2R_Zsoz29-192" value="" style="rounded=0;whiteSpace=wrap;html=1;" parent="2PhkvtB3VaE2R_Zsoz29-141" vertex="1">
          <mxGeometry x="79" y="76.68" width="93.74" height="24.25" as="geometry" />
        </mxCell>
        <mxCell id="2PhkvtB3VaE2R_Zsoz29-193" value="Codigo:" style="text;html=1;align=center;verticalAlign=middle;whiteSpace=wrap;rounded=0;" parent="2PhkvtB3VaE2R_Zsoz29-141" vertex="1">
          <mxGeometry x="19.00474820143885" y="76.68" width="57.194244604316545" height="30" as="geometry" />
        </mxCell>
        <mxCell id="2PhkvtB3VaE2R_Zsoz29-194" value="Nome:" style="text;html=1;align=center;verticalAlign=middle;whiteSpace=wrap;rounded=0;" parent="2PhkvtB3VaE2R_Zsoz29-141" vertex="1">
          <mxGeometry x="172.74460431654674" y="76.68" width="57.194244604316545" height="30" as="geometry" />
        </mxCell>
        <mxCell id="2PhkvtB3VaE2R_Zsoz29-195" value="" style="rounded=0;whiteSpace=wrap;html=1;" parent="2PhkvtB3VaE2R_Zsoz29-141" vertex="1">
          <mxGeometry x="229" y="75.75" width="171" height="24.25" as="geometry" />
        </mxCell>
        <mxCell id="2PhkvtB3VaE2R_Zsoz29-158" value="Buscar" style="html=1;shadow=0;dashed=0;shape=mxgraph.bootstrap.rrect;rSize=5;strokeColor=none;strokeWidth=1;fillColor=#33A64C;fontColor=#FFFFFF;whiteSpace=wrap;align=center;verticalAlign=middle;spacingLeft=0;fontStyle=0;fontSize=16;spacing=5;" parent="2PhkvtB3VaE2R_Zsoz29-141" vertex="1">
          <mxGeometry x="409" y="75.75" width="94" height="25.18" as="geometry" />
        </mxCell>
        <mxCell id="2PhkvtB3VaE2R_Zsoz29-160" value="" style="rounded=0;whiteSpace=wrap;html=1;" parent="2PhkvtB3VaE2R_Zsoz29-141" vertex="1">
          <mxGeometry x="79" y="130" width="69" height="30" as="geometry" />
        </mxCell>
        <mxCell id="2PhkvtB3VaE2R_Zsoz29-161" value="" style="rounded=0;whiteSpace=wrap;html=1;" parent="2PhkvtB3VaE2R_Zsoz29-141" vertex="1">
          <mxGeometry x="148" y="130" width="69" height="30" as="geometry" />
        </mxCell>
        <mxCell id="2PhkvtB3VaE2R_Zsoz29-162" value="" style="rounded=0;whiteSpace=wrap;html=1;" parent="2PhkvtB3VaE2R_Zsoz29-141" vertex="1">
          <mxGeometry x="217" y="130" width="69" height="30" as="geometry" />
        </mxCell>
        <mxCell id="2PhkvtB3VaE2R_Zsoz29-163" value="" style="rounded=0;whiteSpace=wrap;html=1;" parent="2PhkvtB3VaE2R_Zsoz29-141" vertex="1">
          <mxGeometry x="286" y="130" width="69" height="30" as="geometry" />
        </mxCell>
        <mxCell id="2PhkvtB3VaE2R_Zsoz29-164" value="" style="rounded=0;whiteSpace=wrap;html=1;" parent="2PhkvtB3VaE2R_Zsoz29-141" vertex="1">
          <mxGeometry x="355" y="130" width="133" height="30" as="geometry" />
        </mxCell>
        <mxCell id="2PhkvtB3VaE2R_Zsoz29-165" value="" style="rounded=0;whiteSpace=wrap;html=1;" parent="2PhkvtB3VaE2R_Zsoz29-141" vertex="1">
          <mxGeometry x="79" y="160" width="69" height="30" as="geometry" />
        </mxCell>
        <mxCell id="2PhkvtB3VaE2R_Zsoz29-166" value="" style="rounded=0;whiteSpace=wrap;html=1;" parent="2PhkvtB3VaE2R_Zsoz29-141" vertex="1">
          <mxGeometry x="79" y="190" width="69" height="30" as="geometry" />
        </mxCell>
        <mxCell id="2PhkvtB3VaE2R_Zsoz29-167" value="" style="rounded=0;whiteSpace=wrap;html=1;" parent="2PhkvtB3VaE2R_Zsoz29-141" vertex="1">
          <mxGeometry x="148" y="190" width="69" height="30" as="geometry" />
        </mxCell>
        <mxCell id="2PhkvtB3VaE2R_Zsoz29-168" value="" style="rounded=0;whiteSpace=wrap;html=1;" parent="2PhkvtB3VaE2R_Zsoz29-141" vertex="1">
          <mxGeometry x="148" y="160" width="69" height="30" as="geometry" />
        </mxCell>
        <mxCell id="2PhkvtB3VaE2R_Zsoz29-169" value="" style="rounded=0;whiteSpace=wrap;html=1;" parent="2PhkvtB3VaE2R_Zsoz29-141" vertex="1">
          <mxGeometry x="217" y="190" width="69" height="30" as="geometry" />
        </mxCell>
        <mxCell id="2PhkvtB3VaE2R_Zsoz29-170" value="" style="rounded=0;whiteSpace=wrap;html=1;" parent="2PhkvtB3VaE2R_Zsoz29-141" vertex="1">
          <mxGeometry x="217" y="160" width="69" height="30" as="geometry" />
        </mxCell>
        <mxCell id="2PhkvtB3VaE2R_Zsoz29-171" value="" style="rounded=0;whiteSpace=wrap;html=1;" parent="2PhkvtB3VaE2R_Zsoz29-141" vertex="1">
          <mxGeometry x="286" y="160" width="69" height="30" as="geometry" />
        </mxCell>
        <mxCell id="2PhkvtB3VaE2R_Zsoz29-172" value="" style="rounded=0;whiteSpace=wrap;html=1;" parent="2PhkvtB3VaE2R_Zsoz29-141" vertex="1">
          <mxGeometry x="286" y="190" width="69" height="30" as="geometry" />
        </mxCell>
        <mxCell id="2PhkvtB3VaE2R_Zsoz29-173" value="" style="rounded=0;whiteSpace=wrap;html=1;" parent="2PhkvtB3VaE2R_Zsoz29-141" vertex="1">
          <mxGeometry x="355" y="160" width="133" height="30" as="geometry" />
        </mxCell>
        <mxCell id="2PhkvtB3VaE2R_Zsoz29-174" value="" style="rounded=0;whiteSpace=wrap;html=1;" parent="2PhkvtB3VaE2R_Zsoz29-141" vertex="1">
          <mxGeometry x="355" y="190" width="133" height="30" as="geometry" />
        </mxCell>
        <mxCell id="2PhkvtB3VaE2R_Zsoz29-175" value="Código" style="text;html=1;align=center;verticalAlign=middle;whiteSpace=wrap;rounded=0;" parent="2PhkvtB3VaE2R_Zsoz29-141" vertex="1">
          <mxGeometry x="88.5" y="135" width="50" height="20" as="geometry" />
        </mxCell>
        <mxCell id="2PhkvtB3VaE2R_Zsoz29-176" value="Nome" style="text;html=1;align=center;verticalAlign=middle;whiteSpace=wrap;rounded=0;" parent="2PhkvtB3VaE2R_Zsoz29-141" vertex="1">
          <mxGeometry x="157.5" y="135" width="50" height="20" as="geometry" />
        </mxCell>
        <mxCell id="2PhkvtB3VaE2R_Zsoz29-177" value="Menu" style="text;html=1;align=center;verticalAlign=middle;whiteSpace=wrap;rounded=0;" parent="2PhkvtB3VaE2R_Zsoz29-141" vertex="1">
          <mxGeometry x="226.5" y="135" width="50" height="20" as="geometry" />
        </mxCell>
        <mxCell id="2PhkvtB3VaE2R_Zsoz29-178" value="Preço" style="text;html=1;align=center;verticalAlign=middle;whiteSpace=wrap;rounded=0;" parent="2PhkvtB3VaE2R_Zsoz29-141" vertex="1">
          <mxGeometry x="295.5" y="135" width="50" height="20" as="geometry" />
        </mxCell>
        <mxCell id="2PhkvtB3VaE2R_Zsoz29-179" value="Ações" style="text;html=1;align=center;verticalAlign=middle;whiteSpace=wrap;rounded=0;" parent="2PhkvtB3VaE2R_Zsoz29-141" vertex="1">
          <mxGeometry x="396.5" y="135" width="50" height="20" as="geometry" />
        </mxCell>
        <mxCell id="2PhkvtB3VaE2R_Zsoz29-180" value="Editar" style="rounded=1;whiteSpace=wrap;html=1;arcSize=50;strokeColor=none;strokeWidth=1;fillColor=#6C767D;fontColor=#FFFFFF;whiteSpace=wrap;align=left;verticalAlign=middle;spacingLeft=0;fontStyle=1;fontSize=14;spacing=10;" parent="2PhkvtB3VaE2R_Zsoz29-141" vertex="1">
          <mxGeometry x="358" y="164.5" width="59" height="20" as="geometry" />
        </mxCell>
        <mxCell id="2PhkvtB3VaE2R_Zsoz29-181" value="Excluir" style="rounded=1;whiteSpace=wrap;html=1;arcSize=50;strokeColor=none;strokeWidth=1;fillColor=#DB2843;fontColor=#FFFFFF;whiteSpace=wrap;align=left;verticalAlign=middle;spacingLeft=0;fontStyle=1;fontSize=14;spacing=10;" parent="2PhkvtB3VaE2R_Zsoz29-141" vertex="1">
          <mxGeometry x="418" y="165" width="65" height="20" as="geometry" />
        </mxCell>
        <mxCell id="2PhkvtB3VaE2R_Zsoz29-182" value="Editar" style="rounded=1;whiteSpace=wrap;html=1;arcSize=50;strokeColor=none;strokeWidth=1;fillColor=#6C767D;fontColor=#FFFFFF;whiteSpace=wrap;align=left;verticalAlign=middle;spacingLeft=0;fontStyle=1;fontSize=14;spacing=10;" parent="2PhkvtB3VaE2R_Zsoz29-141" vertex="1">
          <mxGeometry x="359" y="194.75" width="59" height="20" as="geometry" />
        </mxCell>
        <mxCell id="2PhkvtB3VaE2R_Zsoz29-183" value="Excluir" style="rounded=1;whiteSpace=wrap;html=1;arcSize=50;strokeColor=none;strokeWidth=1;fillColor=#DB2843;fontColor=#FFFFFF;whiteSpace=wrap;align=left;verticalAlign=middle;spacingLeft=0;fontStyle=1;fontSize=14;spacing=10;" parent="2PhkvtB3VaE2R_Zsoz29-141" vertex="1">
          <mxGeometry x="419" y="195.25" width="65" height="20" as="geometry" />
        </mxCell>
        <mxCell id="2PhkvtB3VaE2R_Zsoz29-184" value="Lorem" style="text;html=1;align=center;verticalAlign=middle;whiteSpace=wrap;rounded=0;" parent="2PhkvtB3VaE2R_Zsoz29-141" vertex="1">
          <mxGeometry x="157.5" y="165" width="50" height="20" as="geometry" />
        </mxCell>
        <mxCell id="2PhkvtB3VaE2R_Zsoz29-185" value="1" style="text;html=1;align=center;verticalAlign=middle;whiteSpace=wrap;rounded=0;" parent="2PhkvtB3VaE2R_Zsoz29-141" vertex="1">
          <mxGeometry x="89" y="165" width="50" height="20" as="geometry" />
        </mxCell>
        <mxCell id="2PhkvtB3VaE2R_Zsoz29-186" value="Lorem" style="text;html=1;align=center;verticalAlign=middle;whiteSpace=wrap;rounded=0;" parent="2PhkvtB3VaE2R_Zsoz29-141" vertex="1">
          <mxGeometry x="226.5" y="164.5" width="50" height="20" as="geometry" />
        </mxCell>
        <mxCell id="2PhkvtB3VaE2R_Zsoz29-187" value="25,80" style="text;html=1;align=center;verticalAlign=middle;whiteSpace=wrap;rounded=0;" parent="2PhkvtB3VaE2R_Zsoz29-141" vertex="1">
          <mxGeometry x="295.5" y="164.5" width="50" height="20" as="geometry" />
        </mxCell>
        <mxCell id="2PhkvtB3VaE2R_Zsoz29-188" value="2" style="text;html=1;align=center;verticalAlign=middle;whiteSpace=wrap;rounded=0;" parent="2PhkvtB3VaE2R_Zsoz29-141" vertex="1">
          <mxGeometry x="89" y="194.75" width="50" height="20" as="geometry" />
        </mxCell>
        <mxCell id="2PhkvtB3VaE2R_Zsoz29-189" value="Lorem" style="text;html=1;align=center;verticalAlign=middle;whiteSpace=wrap;rounded=0;" parent="2PhkvtB3VaE2R_Zsoz29-141" vertex="1">
          <mxGeometry x="157.5" y="194.75" width="50" height="20" as="geometry" />
        </mxCell>
        <mxCell id="2PhkvtB3VaE2R_Zsoz29-190" value="Lorem" style="text;html=1;align=center;verticalAlign=middle;whiteSpace=wrap;rounded=0;" parent="2PhkvtB3VaE2R_Zsoz29-141" vertex="1">
          <mxGeometry x="226.5" y="194.25" width="50" height="20" as="geometry" />
        </mxCell>
        <mxCell id="2PhkvtB3VaE2R_Zsoz29-191" value="15,80" style="text;html=1;align=center;verticalAlign=middle;whiteSpace=wrap;rounded=0;" parent="2PhkvtB3VaE2R_Zsoz29-141" vertex="1">
          <mxGeometry x="295.5" y="194.25" width="50" height="20" as="geometry" />
        </mxCell>
        <mxCell id="2PhkvtB3VaE2R_Zsoz29-201" value="" style="swimlane;shape=mxgraph.bootstrap.anchor;strokeColor=#DEE2E6;fillColor=#ffffff;fontColor=#0085FC;fontStyle=0;childLayout=stackLayout;horizontal=0;startSize=0;horizontalStack=1;resizeParent=1;resizeParentMax=0;resizeLast=0;collapsible=0;marginBottom=0;whiteSpace=wrap;html=1;" parent="2PhkvtB3VaE2R_Zsoz29-141" vertex="1">
          <mxGeometry x="79" y="240" width="75" height="25" as="geometry" />
        </mxCell>
        <mxCell id="2PhkvtB3VaE2R_Zsoz29-202" value="1" style="text;strokeColor=inherit;align=center;verticalAlign=middle;spacingLeft=5;spacingRight=5;overflow=hidden;points=[[0,0.5],[1,0.5]];portConstraint=eastwest;rotatable=0;whiteSpace=wrap;html=1;shape=mxgraph.bootstrap.leftButton;rSize=5;fillColor=#0085FC;fontColor=#ffffff;fontSize=12;" parent="2PhkvtB3VaE2R_Zsoz29-201" vertex="1">
          <mxGeometry width="25" height="25" as="geometry" />
        </mxCell>
        <mxCell id="2PhkvtB3VaE2R_Zsoz29-203" value="2" style="text;strokeColor=inherit;align=center;verticalAlign=middle;spacingLeft=5;spacingRight=5;overflow=hidden;points=[[0,0.5],[1,0.5]];portConstraint=eastwest;rotatable=0;whiteSpace=wrap;html=1;rSize=5;fillColor=inherit;fontColor=inherit;fontSize=12;" parent="2PhkvtB3VaE2R_Zsoz29-201" vertex="1">
          <mxGeometry x="25" width="25" height="25" as="geometry" />
        </mxCell>
        <mxCell id="2PhkvtB3VaE2R_Zsoz29-204" value="3" style="text;strokeColor=inherit;align=center;verticalAlign=middle;spacingLeft=5;spacingRight=5;overflow=hidden;points=[[0,0.5],[1,0.5]];portConstraint=eastwest;rotatable=0;whiteSpace=wrap;html=1;shape=mxgraph.bootstrap.rightButton;rSize=5;fillColor=inherit;fontColor=inherit;fontSize=12;" parent="2PhkvtB3VaE2R_Zsoz29-201" vertex="1">
          <mxGeometry x="50" width="25" height="25" as="geometry" />
        </mxCell>
        <mxCell id="2PhkvtB3VaE2R_Zsoz29-205" style="edgeStyle=orthogonalEdgeStyle;rounded=0;orthogonalLoop=1;jettySize=auto;html=1;" parent="1" source="2PhkvtB3VaE2R_Zsoz29-33" target="2PhkvtB3VaE2R_Zsoz29-141" edge="1">
          <mxGeometry relative="1" as="geometry">
            <Array as="points">
              <mxPoint x="600" y="565" />
              <mxPoint x="600" y="485" />
            </Array>
          </mxGeometry>
        </mxCell>
      </root>
    </mxGraphModel>
  </diagram>
</mxfile>
